# Blender v2.92.0 OBJ File: 'Card_.blend'
# www.blender.org
mtllib Card_.mtl
o Card_Cube
v -1.001407 1.500000 0.253711
v -1.001407 -1.500000 0.253711
v -1.001407 1.500000 0.153711
v -1.001407 -1.500000 0.153711
v 0.998593 1.500000 0.253710
v 0.998593 -1.500000 0.253710
v 0.998593 1.500000 0.153710
v 0.998593 -1.500000 0.153710
v 0.718593 -1.395000 0.153710
v 0.898593 1.395000 0.153710
v -0.901407 1.395000 0.153711
v -0.721407 -1.395000 0.153711
v 0.718593 -1.395000 0.199207
v 0.898593 1.395000 0.199207
v -0.901407 1.395000 0.199207
v -0.721407 -1.395000 0.199207
v -0.901407 0.446946 0.153711
v 0.898593 0.446946 0.153710
v -0.901407 0.446946 0.199207
v 0.898593 0.446946 0.199207
v -0.001407 -1.500000 0.253711
v -0.001407 2.000000 0.153710
v -0.001407 -1.500000 0.153710
v -0.001407 2.000000 0.253711
v -0.001407 1.395000 0.153710
v -0.001407 -1.395000 0.153710
v -0.001407 1.395000 0.199207
v -0.001407 -1.395000 0.199207
v -0.001407 0.789552 0.153710
v -0.001407 0.789552 0.199207
v -0.501407 -1.500000 0.153711
v -0.501407 1.500000 0.253711
v -0.451407 -1.395000 0.153711
v -0.451407 -1.395000 0.199207
v -0.501407 -1.500000 0.253711
v -0.501407 1.500000 0.153711
v -0.451407 1.395000 0.153711
v -0.451407 1.395000 0.199207
v -0.451407 0.789552 0.153711
v -0.451407 0.789552 0.199207
v 0.498593 -1.500000 0.253710
v 0.498593 1.500000 0.153710
v 0.448593 1.395000 0.153710
v 0.448593 1.395000 0.199207
v 0.448593 0.789552 0.153710
v 0.448593 0.789552 0.199207
v 0.498593 -1.500000 0.153710
v 0.498593 1.500000 0.253710
v 0.448593 -1.395000 0.153710
v 0.448593 -1.395000 0.199207
v -0.901407 0.945000 0.153711
v -0.901407 0.945000 0.199207
v 0.898593 0.945000 0.199207
v 0.898593 0.945000 0.153710
v -0.001407 0.945000 0.153710
v -0.001407 0.945000 0.199207
v -0.046407 0.945000 0.153710
v -0.451407 0.945000 0.199207
v 0.448593 0.945000 0.199207
v 0.043593 0.945000 0.153710
v 0.448593 1.395000 0.236737
v 0.898593 1.395000 0.236737
v 0.898593 0.945000 0.236737
v -0.901407 1.395000 0.236738
v -0.451407 1.395000 0.236738
v -0.901407 0.945000 0.236738
v -0.046407 0.945000 0.236738
v 0.043593 0.945000 0.236738
v -0.001407 1.469301 -0.084615
v -0.001407 1.469301 -0.084615
v -0.001407 1.469301 -0.084615
v -0.001407 1.469301 -0.084615
v -1.001407 -1.350000 0.253711
v 0.998593 -1.350000 0.153710
v -1.001407 -1.350000 0.153711
v 0.998593 -1.350000 0.253710
v 0.898593 -1.255500 0.153710
v -0.901407 -1.255500 0.153711
v 0.898593 -1.255500 0.199207
v -0.901407 -1.255500 0.199207
v -0.001407 -1.255500 0.199207
v -0.001407 -1.325000 0.253711
v -0.451407 -1.255500 0.199207
v -0.501407 -1.350000 0.253711
v 0.498593 -1.350000 0.253710
v 0.448593 -1.255500 0.199207
v 0.798593 -1.500000 0.253710
v 0.798593 1.500000 0.153710
v 0.718593 1.395000 0.153710
v 0.718593 1.395000 0.199207
v 0.718593 0.789552 0.153710
v 0.718593 0.789552 0.199207
v 0.798593 -1.500000 0.153710
v 0.798593 1.500000 0.253710
v 0.610593 -1.395000 0.153710
v 0.610593 -1.395000 0.199207
v 0.718593 0.945000 0.199207
v 0.556593 0.945000 0.153710
v 0.718593 1.395000 0.236737
v 0.556593 0.945000 0.236737
v 0.798593 -1.350000 0.253710
v 0.718593 -1.255500 0.199207
v -0.751407 -1.500000 0.153711
v -0.751407 1.500000 0.253711
v -0.586407 -1.395000 0.153711
v -0.586407 -1.395000 0.199207
v -0.751407 -1.500000 0.253711
v -0.751407 1.500000 0.153711
v -0.676407 1.395000 0.153711
v -0.676407 1.395000 0.199207
v -0.676407 0.789552 0.153711
v -0.676407 0.789552 0.199207
v -0.473907 0.945000 0.153711
v -0.676407 0.945000 0.199207
v -0.676407 1.395000 0.236738
v -0.473907 0.945000 0.236738
v -0.676407 -1.255500 0.199207
v -0.751407 -1.350000 0.253711
vt 0.850000 0.500000
vt 0.875000 0.500000
vt 0.875000 0.750000
vt 0.850000 0.750000
vt 0.387500 0.750000
vt 0.625000 0.750000
vt 0.625000 0.750000
vt 0.387500 0.750000
vt 0.387500 0.000000
vt 0.625000 0.000000
vt 0.625000 0.250000
vt 0.387500 0.250000
vt 0.343750 0.500000
vt 0.375000 0.500000
vt 0.375000 0.750000
vt 0.343750 0.750000
vt 0.387500 0.500000
vt 0.625000 0.500000
vt 0.387500 0.468750
vt 0.625000 0.468750
vt 0.343750 0.750000
vt 0.375000 0.750000
vt 0.375000 0.750000
vt 0.343750 0.750000
vt 0.375000 0.000000
vt 0.375000 0.000000
vt 0.387500 0.000000
vt 0.875000 0.750000
vt 0.850000 0.750000
vt 0.387500 0.975000
vt 0.625000 0.975000
vt 0.625000 1.000000
vt 0.387500 1.000000
vt 0.625000 0.750000
vt 0.387500 0.750000
vt 0.625000 0.750000
vt 0.625000 0.750000
vt 0.625000 0.750000
vt 0.625000 0.750000
vt 0.375000 0.000000
vt 0.387500 0.000000
vt 0.850000 0.750000
vt 0.875000 0.750000
vt 0.875000 0.750000
vt 0.850000 0.750000
vt 0.625000 0.781250
vt 0.625000 0.781250
vt 0.625000 0.000000
vt 0.625000 0.000000
vt 0.625000 0.000000
vt 0.625000 0.000000
vt 0.850000 0.750000
vt 0.875000 0.750000
vt 0.687500 0.750000
vt 0.750000 0.750000
vt 0.750000 0.750000
vt 0.687500 0.750000
vt 0.625000 0.937500
vt 0.625000 0.875000
vt 0.625000 0.875000
vt 0.625000 0.937500
vt 0.750000 0.750000
vt 0.687500 0.750000
vt 0.387500 0.812500
vt 0.625000 0.812500
vt 0.625000 0.875000
vt 0.387500 0.875000
vt 0.687500 0.750000
vt 0.750000 0.750000
vt 0.750000 0.750000
vt 0.687500 0.750000
vt 0.187500 0.750000
vt 0.250000 0.750000
vt 0.250000 0.750000
vt 0.187500 0.750000
vt 0.250000 0.750000
vt 0.187500 0.750000
vt 0.387500 0.312500
vt 0.625000 0.312500
vt 0.625000 0.375000
vt 0.387500 0.375000
vt 0.187500 0.500000
vt 0.250000 0.500000
vt 0.687500 0.500000
vt 0.750000 0.500000
vt 0.656250 0.500000
vt 0.656250 0.750000
vt 0.656250 0.750000
vt 0.387500 0.781250
vt 0.625000 0.781250
vt 0.656250 0.750000
vt 0.656250 0.750000
vt 0.656250 0.750000
vt 0.625000 0.812500
vt 0.625000 0.812500
vt 0.312500 0.750000
vt 0.312500 0.750000
vt 0.312500 0.750000
vt 0.625000 0.437500
vt 0.387500 0.437500
vt 0.312500 0.500000
vt 0.150000 0.500000
vt 0.150000 0.750000
vt 0.387500 0.275000
vt 0.625000 0.275000
vt 0.150000 0.750000
vt 0.150000 0.750000
vt 0.625000 0.975000
vt 0.625000 0.975000
vt 0.812500 0.750000
vt 0.812500 0.750000
vt 0.812500 0.750000
vt 0.625000 0.937500
vt 0.387500 0.937500
vt 0.812500 0.750000
vt 0.812500 0.750000
vt 0.812500 0.500000
vt 0.625000 0.000000
vt 0.625000 0.000000
vt 0.625000 0.000000
vt 0.812500 0.750000
vt 0.850000 0.750000
vt 0.625000 0.000000
vt 0.656250 0.750000
vt 0.687500 0.750000
vt 0.687500 0.750000
vt 0.656250 0.750000
vt 0.850000 0.750000
vt 0.875000 0.750000
vt 0.875000 0.750000
vt 0.625000 0.750000
vt 0.625000 0.750000
vt 0.812500 0.750000
vt 0.000000 0.000000
vt 1.000000 0.000000
vt 1.000000 1.000000
vt 0.000000 1.000000
vt 0.375000 0.875000
vt 0.375000 0.937500
vt 0.375000 0.275000
vt 0.375000 0.312500
vt 0.375000 0.375000
vt 0.375000 0.437500
vt 0.375000 0.781250
vt 0.375000 0.812500
vt 0.375000 0.975000
vt 0.375000 1.000000
vt 0.375000 0.468750
vt 0.375000 0.250000
vt 0.625000 1.000000
vt 0.625000 1.000000
vt 0.125000 0.750000
vt 0.125000 0.750000
vt 0.125000 0.750000
vt 0.125000 0.500000
vn 0.0000 1.0000 0.0000
vn -0.0000 0.0000 -1.0000
vn 1.0000 0.0000 0.0000
vn 0.0000 -1.0000 0.0000
vn -1.0000 0.0000 0.0000
vn 0.0000 0.0000 1.0000
vn -0.6126 0.7904 0.0000
vn -0.8853 -0.4651 0.0000
vn -0.7071 0.7071 0.0000
vn 0.7071 0.7071 0.0000
vn -0.7433 -0.6690 -0.0000
vn 0.7433 -0.6690 0.0000
vn 0.6126 0.7904 0.0000
vn 0.8359 -0.5489 0.0000
g Card_Cube_Material
usemtl Material
s off
f 94/1/1 5/2/1 7/3/1 88/4/1
f 75/5/2 3/6/2 11/7/2 78/8/2
f 74/9/3 7/10/3 5/11/3 76/12/3
f 107/13/4 2/14/4 4/15/4 103/16/4
f 73/17/5 1/18/5 3/6/5 75/5/5
f 118/19/6 104/20/6 1/18/6 73/17/6
f 105/21/1 12/22/1 16/23/1 106/24/1
f 74/9/2 8/25/2 9/26/2 77/27/2
f 103/16/2 4/15/2 12/22/2 105/21/2
f 88/4/2 7/3/2 10/28/2 89/29/2
f 102/30/2 90/31/2 14/32/2 79/33/2
f 78/8/3 11/7/3 15/34/3 80/35/3
f 52/36/5 51/37/5 17/38/5 19/39/5
f 77/27/7 9/26/7 13/40/7 79/41/7
f 91/42/8 18/43/8 20/44/8 92/45/8
f 114/46/6 52/36/6 19/39/6 112/47/6
f 54/48/3 53/49/3 20/50/3 18/51/3
f 98/52/2 54/53/2 18/43/2 91/42/2
f 57/54/2 55/55/2 29/56/2 39/57/2
f 59/58/6 56/59/6 30/60/6 46/61/6
f 39/57/4 29/56/4 30/62/4 40/63/4
f 83/64/2 38/65/2 27/66/2 81/67/2
f 36/68/2 22/69/2 25/70/2 37/71/2
f 47/72/2 23/73/2 26/74/2 49/75/2
f 49/75/1 26/74/1 28/76/1 50/77/1
f 85/78/6 48/79/6 24/80/6 82/81/6
f 41/82/4 21/83/4 23/73/4 47/72/4
f 32/84/9 24/85/9 22/69/9 36/68/9
f 104/86/1 32/84/1 36/68/1 108/87/1
f 108/87/2 36/68/2 37/71/2 109/88/2
f 117/89/2 110/90/2 38/65/2 83/64/2
f 111/91/4 39/57/4 40/63/4 112/92/4
f 113/93/2 57/54/2 39/57/2 111/91/2
f 56/59/6 58/94/6 40/95/6 30/60/6
f 23/73/2 31/96/2 33/97/2 26/74/2
f 26/74/1 33/97/1 34/98/1 28/76/1
f 82/81/6 24/80/6 32/99/6 84/100/6
f 21/83/4 35/101/4 31/96/4 23/73/4
f 87/102/4 41/82/4 47/72/4 93/103/4
f 101/104/6 94/105/6 48/79/6 85/78/6
f 95/106/1 49/75/1 50/77/1 96/107/1
f 93/103/2 47/72/2 49/75/2 95/106/2
f 97/108/6 59/58/6 46/61/6 92/109/6
f 55/55/2 60/110/2 45/111/2 29/56/2
f 29/56/4 45/111/4 46/112/4 30/62/4
f 81/67/2 27/66/2 44/113/2 86/114/2
f 22/69/2 42/115/2 43/116/2 25/70/2
f 24/85/10 48/117/10 42/115/10 22/69/10
f 25/70/2 43/116/2 60/110/2 55/55/2
f 90/31/6 44/113/6 59/58/6 97/108/6
f 27/66/6 38/65/6 58/94/6 56/59/6
f 10/118/5 54/48/5 63/119/5 62/120/5
f 44/113/6 27/66/6 56/59/6 59/58/6
f 37/71/2 25/70/2 55/55/2 57/54/2
f 98/52/1 60/110/1 68/121/1 100/122/1
f 10/118/3 14/123/3 53/49/3 54/48/3
f 110/90/6 15/34/6 52/36/6 114/46/6
f 15/34/5 11/7/5 51/37/5 52/36/5
f 115/124/2 65/125/2 67/126/2 116/127/2
f 99/128/2 62/129/2 63/130/2 100/122/2
f 109/88/4 37/71/4 65/125/4 115/124/4
f 37/71/11 57/54/11 67/126/11 65/125/11
f 89/29/4 10/28/4 62/129/4 99/128/4
f 113/93/1 51/37/1 66/131/1 116/127/1
f 51/37/3 11/7/3 64/132/3 66/131/3
f 60/110/12 43/116/12 61/133/12 68/121/12
f 69/134/6 70/135/6 72/136/6 71/137/6
f 28/138/2 81/67/2 86/114/2 50/139/2
f 87/140/6 101/104/6 85/78/6 41/141/6
f 21/142/6 82/81/6 84/100/6 35/143/6
f 106/144/2 117/89/2 83/64/2 34/145/2
f 41/141/6 85/78/6 82/81/6 21/142/6
f 34/145/2 83/64/2 81/67/2 28/138/2
f 10/118/5 77/27/5 79/41/5 14/123/5
f 12/22/13 78/8/13 80/35/13 16/23/13
f 96/146/2 102/30/2 79/33/2 13/147/2
f 7/10/2 74/9/2 77/27/2 10/118/2
f 107/148/6 118/19/6 73/17/6 2/14/6
f 2/14/5 73/17/5 75/5/5 4/15/5
f 8/25/3 74/9/3 76/12/3 6/149/3
f 4/15/2 75/5/2 78/8/2 12/22/2
f 50/139/2 86/114/2 102/30/2 96/146/2
f 6/149/6 76/12/6 101/104/6 87/140/6
f 43/116/4 89/29/4 99/128/4 61/133/4
f 61/133/2 99/128/2 100/122/2 68/121/2
f 54/53/1 98/52/1 100/122/1 63/130/1
f 14/32/6 90/31/6 97/108/6 53/150/6
f 53/150/6 97/108/6 92/109/6 20/151/6
f 8/152/2 93/103/2 95/106/2 9/153/2
f 9/153/1 95/106/1 96/107/1 13/154/1
f 76/12/6 5/11/6 94/105/6 101/104/6
f 6/155/4 87/102/4 93/103/4 8/152/4
f 60/110/2 98/52/2 91/42/2 45/111/2
f 45/111/4 91/42/4 92/45/4 46/112/4
f 86/114/2 44/113/2 90/31/2 102/30/2
f 42/115/2 88/4/2 89/29/2 43/116/2
f 48/117/1 94/1/1 88/4/1 42/115/1
f 35/143/6 84/100/6 118/19/6 107/148/6
f 16/23/2 80/35/2 117/89/2 106/144/2
f 57/54/1 113/93/1 116/127/1 67/126/1
f 11/7/4 109/88/4 115/124/4 64/132/4
f 64/132/2 115/124/2 116/127/2 66/131/2
f 38/65/6 110/90/6 114/46/6 58/94/6
f 51/37/2 113/93/2 111/91/2 17/38/2
f 17/38/14 111/91/14 112/92/14 19/39/14
f 80/35/2 15/34/2 110/90/2 117/89/2
f 3/6/2 108/87/2 109/88/2 11/7/2
f 1/18/1 104/86/1 108/87/1 3/6/1
f 58/94/6 114/46/6 112/47/6 40/95/6
f 31/96/2 103/16/2 105/21/2 33/97/2
f 33/97/1 105/21/1 106/24/1 34/98/1
f 84/100/6 32/99/6 104/20/6 118/19/6
f 35/101/4 107/13/4 103/16/4 31/96/4
o Stat1_Cube.001
v 0.752111 1.034427 0.058077
v 0.752111 1.299569 0.058077
v 0.898101 0.946046 0.199981
v 0.898101 1.387950 0.199981
v 0.486968 1.034427 0.058077
v 0.486968 1.299569 0.058077
v 0.456197 0.946046 0.199981
v 0.456197 1.387950 0.199981
v 0.446378 1.387950 0.199981
v 0.043777 0.946046 0.199981
v 0.239516 1.034427 0.058077
v 0.481077 1.299569 0.058077
vt 0.375000 0.000000
vt 0.625000 0.000000
vt 0.625000 0.250000
vt 0.375000 0.250000
vt 0.625000 0.500000
vt 0.375000 0.500000
vt 0.625000 0.750000
vt 0.375000 0.750000
vt 0.375000 0.750000
vt 0.625000 0.750000
vt 0.625000 1.000000
vt 0.375000 1.000000
vt 0.125000 0.500000
vt 0.125000 0.750000
vt 0.875000 0.500000
vt 0.875000 0.750000
vt 0.375000 0.500000
vt 0.625000 0.500000
vn 0.6970 0.0000 -0.7171
vn 0.0000 0.0000 1.0000
vn -0.0000 0.0000 -1.0000
vn -0.0000 -0.8488 -0.5287
vn -0.0000 0.8488 -0.5287
vn -0.6338 0.5774 -0.5146
g Stat1_Cube.001_None
usemtl None
s off
f 119/156/15 120/157/15 122/158/15 121/159/15
f 121/159/16 122/158/16 126/160/16 125/161/16
f 124/162/17 123/163/17 129/164/17 130/165/17
f 123/163/17 124/162/17 120/166/17 119/167/17
f 121/168/18 125/161/18 123/163/18 119/169/18
f 126/160/19 122/170/19 120/171/19 124/162/19
f 128/172/20 127/173/20 130/165/20 129/164/20
f 123/163/18 125/161/18 128/172/18 129/164/18
f 126/160/19 124/162/19 130/165/19 127/173/19
f 125/161/16 126/160/16 127/173/16 128/172/16
o Stat2_Cube.002
v -0.751407 1.034427 0.058077
v -0.751407 1.299569 0.058077
v -0.897397 0.946046 0.199981
v -0.897397 1.387950 0.199981
v -0.486265 1.034427 0.058077
v -0.486265 1.299569 0.058077
v -0.455493 0.946046 0.199981
v -0.455493 1.387950 0.199981
v -0.445674 1.387950 0.199981
v -0.043073 0.946046 0.199981
v -0.238813 1.034427 0.058077
v -0.480373 1.299569 0.058077
vt 0.375000 0.000000
vt 0.375000 0.250000
vt 0.625000 0.250000
vt 0.625000 0.000000
vt 0.375000 0.500000
vt 0.625000 0.500000
vt 0.625000 0.750000
vt 0.625000 0.750000
vt 0.375000 0.750000
vt 0.375000 0.750000
vt 0.375000 1.000000
vt 0.625000 1.000000
vt 0.125000 0.500000
vt 0.125000 0.750000
vt 0.875000 0.750000
vt 0.875000 0.500000
vt 0.375000 0.500000
vt 0.625000 0.500000
vn -0.6970 0.0000 -0.7171
vn 0.0000 0.0000 1.0000
vn -0.0000 -0.0000 -1.0000
vn -0.0000 -0.8488 -0.5287
vn -0.0000 0.8488 -0.5287
vn 0.6338 0.5774 -0.5146
g Stat2_Cube.002_None
usemtl None
s off
f 131/174/21 133/175/21 134/176/21 132/177/21
f 133/175/22 137/178/22 138/179/22 134/176/22
f 136/180/23 142/181/23 141/182/23 135/183/23
f 135/183/23 131/184/23 132/185/23 136/180/23
f 133/186/24 131/187/24 135/183/24 137/178/24
f 138/179/25 136/180/25 132/188/25 134/189/25
f 140/190/26 141/182/26 142/181/26 139/191/26
f 135/183/24 141/182/24 140/190/24 137/178/24
f 138/179/25 139/191/25 142/181/25 136/180/25
f 137/178/22 140/190/22 139/191/22 138/179/22
o Cost_Plane
v 0.422857 1.469301 0.153710
v -0.001407 1.045037 0.153710
v -0.001407 1.893565 0.153710
v -0.425671 1.469301 0.153711
v -0.001407 1.469301 0.037411
v -0.001407 1.469301 0.037411
v -0.001407 1.469301 0.037411
v -0.001407 1.469301 0.037411
vt 0.000000 0.000000
vt 0.000000 1.000000
vt 1.000000 1.000000
vt 1.000000 0.000000
vt 0.000000 0.000000
vt 1.000000 0.000000
vt 1.000000 1.000000
vt 0.000000 1.000000
vn 0.0000 0.0000 1.0000
vn -0.2556 -0.2556 -0.9324
vn 0.2556 0.2556 -0.9324
vn -0.2556 0.2556 -0.9324
vn 0.2556 -0.2556 -0.9324
g Cost_Plane_None
usemtl None
s off
f 143/192/27 145/193/27 146/194/27 144/195/27
f 148/196/27 149/197/27 150/198/27 147/199/27
f 144/195/28 146/194/28 150/198/28 149/197/28
f 145/193/29 143/192/29 148/196/29 147/199/29
f 146/194/30 145/193/30 147/199/30 150/198/30
f 143/192/31 144/195/31 149/197/31 148/196/31
o cardArt_Plane.001
v 0.946312 -1.431444 0.193796
v -0.949126 -1.431444 0.193797
v 0.946312 0.799882 0.193796
v -0.949126 0.799882 0.193797
vt 0.000000 0.000000
vt 1.000000 0.000000
vt 1.000000 1.000000
vt 0.000000 1.000000
vn -0.0000 -0.0000 -1.0000
g cardArt_Plane.001_None
usemtl None
s off
f 151/200/32 152/201/32 154/202/32 153/203/32
