# Blender v2.92.0 OBJ File: ''
# www.blender.org
mtllib HexagonOutline.mtl
o Cylinder
v 0.000000 -0.055000 -1.100000
v 0.000000 0.055000 -1.100000
v 0.952628 -0.055000 -0.550000
v 0.952628 0.055000 -0.550000
v 0.952628 -0.055000 0.550000
v 0.952628 0.055000 0.550000
v -0.000000 -0.055000 1.100000
v -0.000000 0.055000 1.100000
v -0.952628 -0.055000 0.550000
v -0.952628 0.055000 0.550000
v -0.952628 -0.055000 -0.550000
v -0.952628 0.055000 -0.550000
v -0.000000 -0.044000 -0.880000
v 0.762102 -0.044000 -0.440000
v 0.762102 0.044000 -0.440000
v -0.000000 0.044000 -0.880000
v 0.762102 -0.044000 0.440000
v 0.762102 0.044000 0.440000
v -0.000000 -0.044000 0.880000
v -0.000000 0.044000 0.880000
v -0.762102 -0.044000 0.440000
v -0.762102 0.044000 0.440000
v -0.762102 -0.044000 -0.440000
v -0.762102 0.044000 -0.440000
v -0.000000 -0.044000 -0.880000
v 0.762102 -0.044000 -0.440000
v 0.762102 0.044000 -0.440000
v -0.000000 0.044000 -0.880000
v 0.762102 -0.044000 0.440000
v 0.762102 0.044000 0.440000
v -0.000000 -0.044000 0.880000
v -0.000000 0.044000 0.880000
v -0.762102 -0.044000 0.440000
v -0.762102 0.044000 0.440000
v -0.762102 -0.044000 -0.440000
v -0.762102 0.044000 -0.440000
v -0.000000 0.000136 -0.880000
v 0.762102 0.000136 -0.440000
v 0.762102 -0.000136 -0.440000
v -0.000000 -0.000136 -0.880000
v 0.762102 0.000136 0.440000
v 0.762102 -0.000136 0.440000
v -0.000000 0.000136 0.880000
v -0.000000 -0.000136 0.880000
v -0.762102 0.000136 0.440000
v -0.762102 -0.000136 0.440000
v -0.762102 0.000136 -0.440000
v -0.762102 -0.000136 -0.440000
vt 1.000000 0.500000
vt 1.000000 1.000000
vt 0.833333 1.000000
vt 0.833333 0.500000
vt 0.666667 1.000000
vt 0.666667 0.500000
vt 0.500000 1.000000
vt 0.500000 0.500000
vt 0.333333 1.000000
vt 0.333333 0.500000
vt 0.166667 0.500000
vt 0.166667 0.500000
vt 0.333333 0.500000
vt 0.166667 1.000000
vt -0.000000 1.000000
vt -0.000000 0.500000
vt -0.000000 0.500000
vt 0.833333 0.500000
vt 0.666667 0.500000
vt 0.666667 0.500000
vt 0.833333 0.500000
vt 0.500000 1.000000
vt 0.666667 1.000000
vt 0.666667 1.000000
vt 0.500000 1.000000
vt 0.500000 0.500000
vt 0.166667 1.000000
vt -0.000000 1.000000
vt 1.000000 0.500000
vt 0.333333 1.000000
vt 1.000000 1.000000
vt 0.833333 1.000000
vt 0.666667 1.000000
vt 0.500000 1.000000
vt 0.333333 0.500000
vt 0.166667 0.500000
vt 0.166667 0.500000
vt 0.333333 0.500000
vt 0.333333 1.000000
vt 0.166667 1.000000
vt 0.500000 0.500000
vt 0.833333 1.000000
vt -0.000000 0.500000
vt 1.000000 0.500000
vt -0.000000 1.000000
vt 1.000000 1.000000
vt 0.666667 0.500000
vt 0.833333 0.500000
vt 0.333333 1.000000
vt 0.166667 1.000000
vt 0.500000 0.500000
vt 0.833333 1.000000
vt -0.000000 0.500000
vt 1.000000 0.500000
vt -0.000000 1.000000
vt 1.000000 1.000000
vn 0.5000 0.0000 -0.8660
vn 1.0000 0.0000 0.0000
vn 0.5000 0.0000 0.8660
vn -0.5000 0.0000 0.8660
vn 0.0576 -0.9983 0.0000
vn -1.0000 0.0000 0.0000
vn -0.5000 0.0000 -0.8660
vn 0.0288 -0.9983 0.0499
vn 0.0000 0.0000 1.0000
vn 0.0288 -0.9983 -0.0499
vn 0.0288 0.9983 0.0499
vn -0.0288 -0.9983 0.0499
vn -0.0288 -0.9983 -0.0499
vn 0.0576 0.9983 0.0000
vn -0.0576 -0.9983 -0.0000
vn 0.0288 0.9983 -0.0499
vn -0.0288 0.9983 0.0499
vn -0.0288 0.9983 -0.0499
vn -0.0576 0.9983 -0.0000
usemtl None
s off
f 1/1/1 2/2/1 4/3/1 3/4/1
f 3/4/2 4/3/2 6/5/2 5/6/2
f 5/6/3 6/5/3 8/7/3 7/8/3
f 7/8/4 8/7/4 10/9/4 9/10/4
f 9/10/5 11/11/5 23/12/5 21/13/5
f 9/10/6 10/9/6 12/14/6 11/11/6
f 11/11/7 12/14/7 2/15/7 1/16/7
f 11/11/8 1/16/8 13/17/8 23/12/8
f 14/18/9 17/19/9 29/20/9 26/21/9
f 20/22/9 18/23/9 30/24/9 32/25/9
f 7/8/10 9/10/10 21/13/10 19/26/10
f 2/15/11 12/14/11 24/27/11 16/28/11
f 1/1/12 3/4/12 14/18/12 13/29/12
f 5/6/13 7/8/13 19/26/13 17/19/13
f 12/14/14 10/9/14 22/30/14 24/27/14
f 3/4/15 5/6/15 17/19/15 14/18/15
f 10/9/16 8/7/16 20/22/16 22/30/16
f 4/3/17 2/2/17 16/31/17 15/32/17
f 8/7/18 6/5/18 18/23/18 20/22/18
f 6/5/19 4/3/19 15/32/19 18/23/19
f 32/25/7 30/24/7 42/33/7 44/34/7
f 33/35/2 35/36/2 47/37/2 45/38/2
f 24/27/9 22/30/9 34/39/9 36/40/9
f 19/26/9 21/13/9 33/35/9 31/41/9
f 18/23/9 15/32/9 27/42/9 30/24/9
f 23/12/9 13/17/9 25/43/9 35/36/9
f 13/29/9 14/18/9 26/21/9 25/44/9
f 22/30/9 20/22/9 32/25/9 34/39/9
f 17/19/9 19/26/9 31/41/9 29/20/9
f 16/28/9 24/27/9 36/40/9 28/45/9
f 15/32/9 16/31/9 28/46/9 27/42/9
f 21/13/9 23/12/9 35/36/9 33/35/9
f 26/21/6 29/20/6 41/47/6 38/48/6
f 36/40/2 34/39/2 46/49/2 48/50/2
f 31/41/1 33/35/1 45/38/1 43/51/1
f 30/24/6 27/42/6 39/52/6 42/33/6
f 35/36/3 25/43/3 37/53/3 47/37/3
f 25/44/4 26/21/4 38/48/4 37/54/4
f 34/39/1 32/25/1 44/34/1 46/49/1
f 29/20/7 31/41/7 43/51/7 41/47/7
f 28/45/3 36/40/3 48/50/3 40/55/3
f 27/42/4 28/46/4 40/56/4 39/52/4
